<?xml version="1.0" encoding="UTF-8"?>
<!-- Generated by Pixelmator Pro 4.2 -->
<svg width="1680" height="270" viewBox="0 0 1680 270" xmlns="http://www.w3.org/2000/svg">
    <g id="Group">
        <path id="Path" fill="none" stroke="#00b4d8" stroke-width="1.35" stroke-opacity="0.25" d="M 171 19.800003 L 266.399994 73.800003 L 266.399994 181.800003 L 171 235.800003 L 75.599998 181.800003 L 75.599998 73.800003 Z"/>
        <linearGradient id="linearGradient1" x1="82.8" y1="27" x2="259.2" y2="225" gradientUnits="userSpaceOnUse">
            <stop offset="1e-05" stop-color="#00b4d8" stop-opacity="0.06"/>
            <stop offset="1" stop-color="#0077a8" stop-opacity="0.06"/>
        </linearGradient>
        <path id="path1" fill="url(#linearGradient1)" stroke="none" d="M 171 27 L 259.200012 76.5 L 259.200012 175.5 L 171 225 L 82.800003 175.5 L 82.800003 76.5 Z"/>
        <linearGradient id="linearGradient2" x1="82.8" y1="27" x2="259.2" y2="225" gradientUnits="userSpaceOnUse">
            <stop offset="1e-05" stop-color="#00b4d8" stop-opacity="1"/>
            <stop offset="1" stop-color="#0077a8" stop-opacity="1"/>
        </linearGradient>
        <path id="path2" fill="none" stroke="url(#linearGradient2)" stroke-width="2.7" d="M 171 27 L 259.200012 76.5 L 259.200012 175.5 L 171 225 L 82.800003 175.5 L 82.800003 76.5 Z"/>
        <path id="path3" fill="#00b4d8" stroke="none" opacity="0.9" d="M 175.5 27 C 175.5 29.485275 173.485291 31.5 171 31.5 C 168.514709 31.5 166.5 29.485275 166.5 27 C 166.5 24.514725 168.514709 22.5 171 22.5 C 173.485291 22.5 175.5 24.514725 175.5 27 Z"/>
        <path id="path4" fill="#00b4d8" stroke="none" opacity="0.9" d="M 263.700012 76.5 C 263.700012 78.985275 261.685272 81 259.200012 81 C 256.714722 81 254.699997 78.985275 254.699997 76.5 C 254.699997 74.014725 256.714722 72 259.200012 72 C 261.685272 72 263.700012 74.014725 263.700012 76.5 Z"/>
        <path id="path5" fill="#00b4d8" stroke="none" opacity="0.9" d="M 263.700012 175.5 C 263.700012 177.985291 261.685272 180 259.200012 180 C 256.714722 180 254.699997 177.985291 254.699997 175.5 C 254.699997 173.014709 256.714722 171 259.200012 171 C 261.685272 171 263.700012 173.014709 263.700012 175.5 Z"/>
        <path id="path6" fill="#00b4d8" stroke="none" opacity="0.9" d="M 175.5 225 C 175.5 227.485291 173.485291 229.5 171 229.5 C 168.514709 229.5 166.5 227.485291 166.5 225 C 166.5 222.514709 168.514709 220.5 171 220.5 C 173.485291 220.5 175.5 222.514709 175.5 225 Z"/>
        <path id="path7" fill="#00b4d8" stroke="none" opacity="0.9" d="M 87.300003 175.5 C 87.300003 177.985291 85.285286 180 82.800003 180 C 80.31472 180 78.300003 177.985291 78.300003 175.5 C 78.300003 173.014709 80.31472 171 82.800003 171 C 85.285286 171 87.300003 173.014709 87.300003 175.5 Z"/>
        <path id="path8" fill="#00b4d8" stroke="none" opacity="0.9" d="M 87.300003 76.5 C 87.300003 78.985275 85.285286 81 82.800003 81 C 80.31472 81 78.300003 78.985275 78.300003 76.5 C 78.300003 74.014725 80.31472 72 82.800003 72 C 85.285286 72 87.300003 74.014725 87.300003 76.5 Z"/>
        <path id="path9" fill="#000000" stroke="#00b4d8" stroke-width="0.72" stroke-opacity="0.15" stroke-dasharray="4 5" stroke-dashoffset="0" d="M 82.800003 126 L 259.200012 126"/>
        <path id="path10" fill="#ffffff" fill-opacity="0.92" stroke="none" d="M 124.199997 74.699997 L 133.199997 74.699997 C 134.694 74.699997 135.899994 75.905991 135.899994 77.399994 L 135.899994 175.5 C 135.899994 176.994003 134.694 178.199997 133.199997 178.199997 L 124.199997 178.199997 C 122.705994 178.199997 121.5 176.994003 121.5 175.5 L 121.5 77.399994 C 121.5 75.905991 122.705994 74.699997 124.199997 74.699997 Z"/>
        <path id="path11" fill="#ffffff" fill-opacity="0.92" stroke="none" d="M 208.800003 74.699997 L 217.800003 74.699997 C 219.294006 74.699997 220.5 75.905991 220.5 77.399994 L 220.5 175.5 C 220.5 176.994003 219.294006 178.199997 217.800003 178.199997 L 208.800003 178.199997 C 207.306 178.199997 206.100006 176.994003 206.100006 175.5 L 206.100006 77.399994 C 206.100006 75.905991 207.306 74.699997 208.800003 74.699997 Z"/>
        <linearGradient id="linearGradient3" x1="135.9" y1="74.7" x2="206.1" y2="178.2" gradientUnits="userSpaceOnUse">
            <stop offset="1e-05" stop-color="#90e0ef" stop-opacity="1"/>
            <stop offset="1" stop-color="#00b4d8" stop-opacity="1"/>
        </linearGradient>
        <path id="path12" fill="url(#linearGradient3)" stroke="none" d="M 135.899994 74.699997 L 206.100006 155.699997 L 206.100006 178.199997 L 135.899994 97.199997 Z"/>
        <path id="path13" fill="#007ba7" stroke="none" opacity="0.9" d="M 176.399994 127 C 176.399994 129.98233 173.98233 132.399994 171 132.399994 C 168.01767 132.399994 165.600006 129.98233 165.600006 127 C 165.600006 124.01767 168.01767 121.600006 171 121.600006 C 173.98233 121.600006 176.399994 124.01767 176.399994 127 Z"/>
    </g>
    <path id="path14" fill="#000000" stroke="#ffffff" stroke-width="3" stroke-opacity="0.219608" d="M 309 54 L 309 216"/>
    <text id="NEXXUS" xml:space="preserve" x="341" y="175" font-family="Helvetica" font-size="127.08322" fill="#ffffff" letter-spacing="0.706018">NEXXUS</text>
    <text id="TECH" xml:space="preserve" x="914" y="175" font-family="Helvetica" font-size="127.08322" fill="#007ba7" letter-spacing="0.706018">TECH</text>
    <path id="CONSULTING--CLOUD--SECURITY--AI" fill="#ffffff" stroke="none" opacity="0.778911" d="M 1247.049927 195.67511 L 1251.880249 195.67511 L 1251.880249 212.712463 L 1247.049927 212.712463 Z M 1231.261353 205.730515 L 1225.902344 198.203461 L 1220.206909 205.730515 Z M 1223.402954 195.67511 L 1228.810181 195.67511 L 1241.618774 212.712463 L 1236.380005 212.712463 L 1232.799316 207.609375 L 1218.837036 207.609375 L 1215.016113 212.712463 L 1210.113647 212.712463 Z M 1191.441284 203.097778 C 1192.306396 203.097778 1193.035278 203.242752 1193.628174 203.5327 C 1194.220947 203.822647 1194.517334 204.172516 1194.517334 204.582306 C 1194.517334 204.992111 1194.216919 205.34198 1193.616089 205.631927 C 1193.015259 205.921875 1192.290405 206.066849 1191.441284 206.066849 C 1190.592163 206.066849 1189.867188 205.921875 1189.266479 205.631927 C 1188.665649 205.34198 1188.365234 204.992111 1188.365234 204.582306 C 1188.365234 204.172516 1188.661621 203.822647 1189.254395 203.5327 C 1189.847168 203.242752 1190.57605 203.097778 1191.441284 203.097778 Z M 1140.110107 195.67511 L 1145.685425 195.67511 L 1155.826782 203.863251 L 1165.968018 195.67511 L 1171.567261 195.67511 L 1158.22998 205.846497 L 1158.22998 212.712463 L 1153.447632 212.712463 L 1153.447632 205.846497 Z M 1138.476074 195.67511 L 1138.476074 197.704742 L 1126.580566 197.704742 L 1126.580566 212.712463 L 1121.726196 212.712463 L 1121.726196 197.704742 L 1109.830566 197.704742 L 1109.830566 195.67511 Z M 1100.19397 195.67511 L 1105.024292 195.67511 L 1105.024414 212.712463 L 1100.19397 212.712463 Z M 1079.983643 203.480515 C 1082.226563 203.480515 1084.000854 203.264008 1085.306519 202.831024 C 1086.612305 202.398041 1087.265137 201.617126 1087.265137 200.488251 C 1087.265137 199.274323 1086.351929 198.447006 1084.525513 198.006287 C 1083.548218 197.774323 1082.242554 197.658356 1080.608398 197.658356 L 1068.929199 197.658356 L 1068.929199 203.480515 Z M 1064.146973 195.67511 L 1080.488281 195.67511 C 1083.17981 195.67511 1085.398682 195.864532 1087.14502 196.243408 C 1090.461304 196.9702 1092.119385 198.311676 1092.119385 200.267883 C 1092.119385 201.288513 1091.682861 202.12355 1090.809692 202.773041 C 1089.936646 203.422516 1088.715088 203.944427 1087.14502 204.33876 C 1088.522705 204.609375 1089.560059 204.965057 1090.25708 205.405762 C 1090.953979 205.846497 1091.342407 206.561691 1091.422607 207.551392 L 1091.590698 209.836182 C 1091.638794 210.485672 1091.750977 210.968918 1091.927246 211.285919 C 1092.215576 211.827164 1092.728271 212.175095 1093.46521 212.329742 L 1093.46521 212.712463 L 1087.601563 212.712463 C 1087.441284 212.565567 1087.31311 212.376129 1087.217041 212.144165 C 1087.12085 211.912216 1087.040894 211.46376 1086.976685 210.798813 L 1086.688354 207.957321 C 1086.576172 206.843903 1085.719116 206.097778 1084.117065 205.718903 C 1083.203735 205.510147 1081.769897 205.405762 1079.81543 205.405762 L 1068.929199 205.405762 L 1068.929199 212.712463 L 1064.146973 212.712463 Z M 1033.218506 195.67511 L 1033.218506 206.206024 C 1033.218506 207.443146 1033.699097 208.471497 1034.6604 209.291077 C 1036.086182 210.528198 1038.48938 211.146744 1041.869751 211.146744 C 1045.923096 211.146744 1048.678711 210.477936 1050.136597 209.140305 C 1050.921631 208.413498 1051.314209 207.435425 1051.314209 206.206024 L 1051.314209 195.67511 L 1056.168457 195.67511 L 1056.168457 205.243408 C 1056.168457 207.338776 1055.58374 208.950867 1054.414185 210.079742 C 1052.267334 212.136444 1048.214111 213.164795 1042.254395 213.164795 C 1036.294556 213.164795 1032.249268 212.136444 1030.118408 210.079742 C 1028.948853 208.950867 1028.364136 207.338776 1028.364136 205.243408 L 1028.364136 195.67511 Z M 1007.360718 195.211182 C 1011.830566 195.211182 1015.299072 195.77948 1017.766296 196.916077 C 1020.233582 198.052673 1021.603333 199.343903 1021.87561 200.789795 L 1017.213562 200.789795 C 1016.684875 199.691833 1015.63147 198.822006 1014.053467 198.180252 C 1012.475464 197.538498 1010.260498 197.217621 1007.408752 197.217621 C 1003.93219 197.217621 1001.124573 197.80719 998.985718 198.986313 C 996.847046 200.165436 995.777649 201.972763 995.777649 204.408356 C 995.777649 206.403198 996.742798 208.021103 998.673401 209.262085 C 1000.603821 210.503067 1003.483704 211.12355 1007.312683 211.12355 C 1010.83728 211.12355 1013.520752 210.470215 1015.363159 209.163498 C 1016.340393 208.475357 1017.069458 207.570724 1017.550049 206.449585 L 1022.212158 206.449585 C 1021.795593 208.243408 1020.417725 209.747253 1018.078735 210.961182 C 1015.275024 212.422531 1011.494141 213.153198 1006.735901 213.153198 C 1002.634521 213.153198 999.190063 212.55397 996.402466 211.355515 C 992.733643 209.770447 990.899231 207.323318 990.899231 204.014008 C 990.899231 201.501114 992.276978 199.440567 995.032593 197.832306 C 998.012512 196.084885 1002.121826 195.211182 1007.360718 195.211182 Z M 960.11499 195.67511 L 985.8526 195.67511 L 985.8526 197.762726 L 964.7771 197.762726 L 964.7771 202.93541 L 984.266541 202.93541 L 984.266541 204.907059 L 964.7771 204.907059 L 964.7771 210.682831 L 986.213074 210.682831 L 986.213074 212.712463 L 960.11499 212.712463 Z M 929.955566 207.215042 C 930.067749 208.181549 930.540283 208.966339 931.373474 209.569427 C 932.959534 210.698303 935.755127 211.262726 939.760376 211.262726 C 941.554749 211.262726 943.188904 211.139008 944.662781 210.891602 C 947.514526 210.412201 948.94043 209.55397 948.94043 208.316849 C 948.94043 207.389008 948.339661 206.727936 947.138062 206.333603 C 945.92041 205.947006 944.013977 205.610657 941.418518 205.324585 L 936.636292 204.802673 C 933.512207 204.462463 931.301392 204.087463 930.003662 203.677673 C 927.760742 202.966339 926.639282 201.903198 926.639282 200.488251 C 926.639282 198.957306 927.736694 197.700882 929.93158 196.718903 C 932.126404 195.736938 935.234497 195.245972 939.255737 195.245972 C 942.956604 195.245972 946.100647 195.677032 948.688049 196.539154 C 951.275452 197.40126 952.569153 198.77948 952.569153 200.673813 L 948.075195 200.673813 C 947.834961 199.761429 947.322327 199.061707 946.537292 198.574585 C 945.079346 197.685394 942.604126 197.240814 939.111572 197.240814 C 936.291809 197.240814 934.265198 197.526901 933.031555 198.09906 C 931.798035 198.671234 931.181152 199.336182 931.181152 200.093903 C 931.181152 200.928955 931.902161 201.539795 933.343994 201.926392 C 934.289246 202.173813 936.428101 202.483093 939.760376 202.854218 L 944.710815 203.399323 C 947.097961 203.662216 948.94043 204.021744 950.238098 204.477936 C 952.481018 205.274323 953.602478 206.430252 953.602478 207.945709 C 953.602478 209.832321 952.180664 211.181534 949.336853 211.993393 C 946.493164 212.805252 943.188904 213.211182 939.42395 213.211182 C 935.034241 213.211182 931.597717 212.669952 929.114502 211.587463 C 926.631226 210.512726 925.413635 209.055267 925.461731 207.215042 Z M 902.439636 203.097778 C 903.304749 203.097778 904.033691 203.242752 904.626465 203.5327 C 905.219299 203.822647 905.515625 204.172516 905.515625 204.582306 C 905.515625 204.992111 905.215271 205.34198 904.614502 205.631927 C 904.013733 205.921875 903.288696 206.066849 902.439636 206.066849 C 901.590576 206.066849 900.86554 205.921875 900.264771 205.631927 C 899.664001 205.34198 899.363647 204.992111 899.363647 204.582306 C 899.363647 204.172516 899.659973 203.822647 900.252808 203.5327 C 900.845581 203.242752 901.574524 203.097778 902.439636 203.097778 Z M 863.821106 210.740814 C 865.439331 210.740814 866.769043 210.659637 867.810364 210.497269 C 869.668823 210.195709 871.190735 209.615829 872.376343 208.757568 C 873.321594 208.069427 874.002502 207.187988 874.419006 206.113251 C 874.659363 205.471497 874.77948 204.876129 874.77948 204.327164 C 874.77948 202.216324 873.9104 200.577179 872.172058 199.409637 C 870.433838 198.242096 867.634155 197.658356 863.773071 197.658356 L 855.290039 197.658356 L 855.290039 210.740814 Z M 850.483765 195.67511 L 864.78241 195.67511 C 869.63678 195.67511 873.401672 196.506287 876.077209 198.168655 C 878.464294 199.668671 879.657898 201.590027 879.657898 203.932831 C 879.657898 205.742126 878.952881 207.377411 877.543152 208.83876 C 875.059875 211.421249 870.790283 212.712463 864.734375 212.712463 L 850.483765 212.712463 Z M 819.915833 195.67511 L 819.915833 206.206024 C 819.915833 207.443146 820.396423 208.471497 821.357727 209.291077 C 822.783569 210.528198 825.186707 211.146744 828.567139 211.146744 C 832.620361 211.146744 835.375977 210.477936 836.833984 209.140305 C 837.618896 208.413498 838.011414 207.435425 838.011414 206.206024 L 838.011414 195.67511 L 842.865845 195.67511 L 842.865845 205.243408 C 842.865845 207.338776 842.281067 208.950867 841.111511 210.079742 C 838.964722 212.136444 834.911438 213.164795 828.951599 213.164795 C 822.991821 213.164795 818.946533 212.136444 816.815735 210.079742 C 815.64624 208.950867 815.061523 207.338776 815.061523 205.243408 L 815.061523 195.67511 Z M 791.678894 195.211182 C 797.911072 195.211182 802.525085 196.177673 805.521057 198.110657 C 807.860046 199.618408 809.029541 201.547516 809.029541 203.898041 C 809.029541 206.441864 807.691895 208.556534 805.016357 210.242111 C 801.876221 212.221497 797.398376 213.211182 791.582825 213.211182 C 786.151733 213.211182 781.882141 212.345215 778.774048 210.613251 C 776.002441 208.94313 774.616638 206.832336 774.616638 204.280762 C 774.616638 201.976624 775.802185 200.005005 778.173279 198.365814 C 781.217285 196.262711 785.719116 195.211182 791.678894 195.211182 Z M 792.159546 211.146744 C 796.372986 211.146744 799.421021 210.418015 801.303467 208.960541 C 803.185974 207.503052 804.127197 205.827179 804.127197 203.932831 C 804.127197 201.930237 803.041748 200.318146 800.870972 199.096497 C 798.700134 197.874832 795.732178 197.264008 791.967285 197.264008 C 788.314514 197.264008 785.334656 197.869034 783.027588 199.079102 C 780.720642 200.289154 779.567139 202.073273 779.567139 204.431549 C 779.567139 206.318146 780.556396 207.908981 782.534973 209.204102 C 784.51355 210.499207 787.72168 211.146744 792.159546 211.146744 Z M 749.071289 195.67511 L 753.853516 195.67511 L 753.853516 210.682831 L 771.73291 210.682831 L 771.73291 212.712463 L 749.071289 212.712463 Z M 728.404236 195.211182 C 732.874146 195.211182 736.342651 195.77948 738.809814 196.916077 C 741.2771 198.052673 742.646912 199.343903 742.919189 200.789795 L 738.25708 200.789795 C 737.728455 199.691833 736.675049 198.822006 735.096985 198.180252 C 733.51886 197.538498 731.304016 197.217621 728.452332 197.217621 C 724.975708 197.217621 722.168091 197.80719 720.029297 198.986313 C 717.890442 200.165436 716.821045 201.972763 716.821045 204.408356 C 716.821045 206.403198 717.786377 208.021103 719.716919 209.262085 C 721.6474 210.503067 724.527222 211.12355 728.35614 211.12355 C 731.880737 211.12355 734.564331 210.470215 736.406677 209.163498 C 737.383972 208.475357 738.112915 207.570724 738.593506 206.449585 L 743.255615 206.449585 C 742.839111 208.243408 741.461304 209.747253 739.122253 210.961182 C 736.318542 212.422531 732.537659 213.153198 727.779419 213.153198 C 723.67804 213.153198 720.233582 212.55397 717.445923 211.355515 C 713.7771 209.770447 711.942688 207.323318 711.942688 204.014008 C 711.942688 201.501114 713.320496 199.440567 716.076111 197.832306 C 719.05603 196.084885 723.165405 195.211182 728.404236 195.211182 Z M 689.136963 203.097778 C 690.002075 203.097778 690.731018 203.242752 691.323792 203.5327 C 691.916504 203.822647 692.212952 204.172516 692.212952 204.582306 C 692.212952 204.992111 691.912598 205.34198 691.311707 205.631927 C 690.710999 205.921875 689.986023 206.066849 689.136963 206.066849 C 688.287781 206.066849 687.562866 205.921875 686.962097 205.631927 C 686.361328 205.34198 686.060852 204.992111 686.060852 204.582306 C 686.060852 204.172516 686.3573 203.822647 686.950012 203.5327 C 687.542847 203.242752 688.27179 203.097778 689.136963 203.097778 Z M 649.485107 195.234375 C 652.801453 195.234375 655.66925 195.543655 658.088379 196.162216 C 661.596985 197.051392 663.743774 198.60936 664.528809 200.836182 L 659.794617 200.836182 C 659.217834 199.591339 658.024231 198.684753 656.213928 198.116455 C 654.403564 197.548157 652.120544 197.264008 649.36499 197.264008 C 646.09668 197.264008 643.345093 197.855499 641.110229 199.038498 C 638.875244 200.221497 637.757813 201.98436 637.757813 204.327164 C 637.757813 206.352936 638.679016 208.00177 640.521423 209.273682 C 642.363831 210.545593 645.367737 211.181549 649.533142 211.181549 C 652.721313 211.181549 655.360779 210.735016 657.451599 209.84198 C 659.542236 208.948944 660.611633 207.505005 660.659668 205.510147 L 649.605225 205.510147 L 649.605225 203.596497 L 665.105591 203.596497 L 665.105591 212.712463 L 662.02948 212.712463 L 660.875977 210.520462 C 659.257874 211.378708 657.824036 211.97406 656.574402 212.306549 C 654.475647 212.878708 651.808167 213.164795 648.571899 213.164795 C 644.390442 213.164795 640.793762 212.511444 637.78186 211.204742 C 634.497559 209.565552 632.855347 207.315582 632.855347 204.454742 C 632.855347 201.601624 634.457458 199.332321 637.661621 197.646759 C 640.705627 196.038498 644.64679 195.234375 649.485107 195.234375 Z M 598.682739 195.67511 L 604.330139 195.67511 L 622.161438 209.476654 L 622.161438 195.67511 L 626.703369 195.67511 L 626.703369 212.712463 L 621.34436 212.712463 L 603.248779 198.922516 L 603.248779 212.712463 L 598.682739 212.712463 Z M 586.090332 195.67511 L 590.920593 195.67511 L 590.920593 212.712463 L 586.090332 212.712463 Z M 500.850922 195.67511 L 500.850922 206.206024 C 500.850922 207.443146 501.331573 208.471497 502.292816 209.291077 C 503.718689 210.528198 506.121826 211.146744 509.502228 211.146744 C 513.555481 211.146744 516.311157 210.477936 517.769043 209.140305 C 518.554077 208.413498 518.946594 207.435425 518.946594 206.206024 L 518.946594 195.67511 L 523.800903 195.67511 L 523.800903 205.243408 C 523.800903 207.338776 523.216125 208.950867 522.046631 210.079742 C 519.899841 212.136444 515.846497 213.164795 509.886749 213.164795 C 503.926941 213.164795 499.881683 212.136444 497.750885 210.079742 C 496.581329 208.950867 495.996582 207.338776 495.996582 205.243408 L 495.996582 195.67511 Z M 465.957336 207.215042 C 466.069489 208.181549 466.542084 208.966339 467.375183 209.569427 C 468.961273 210.698303 471.756927 211.262726 475.762177 211.262726 C 477.556488 211.262726 479.190613 211.139008 480.664551 210.891602 C 483.516266 210.412201 484.942139 209.55397 484.942139 208.316849 C 484.942139 207.389008 484.34137 206.727936 483.139801 206.333603 C 481.92218 205.947006 480.015717 205.610657 477.420288 205.324585 L 472.638092 204.802673 C 469.514008 204.462463 467.303101 204.087463 466.005402 203.677673 C 463.762482 202.966339 462.641022 201.903198 462.641022 200.488251 C 462.641022 198.957306 463.738403 197.700882 465.933319 196.718903 C 468.128143 195.736938 471.236237 195.245972 475.257477 195.245972 C 478.958313 195.245972 482.102417 195.677032 484.689789 196.539154 C 487.277191 197.40126 488.570862 198.77948 488.570862 200.673813 L 484.076996 200.673813 C 483.83667 199.761429 483.324036 199.061707 482.539001 198.574585 C 481.081085 197.685394 478.605865 197.240814 475.113281 197.240814 C 472.29361 197.240814 470.266968 197.526901 469.033386 198.09906 C 467.799744 198.671234 467.182922 199.336182 467.182922 200.093903 C 467.182922 200.928955 467.90387 201.539795 469.345734 201.926392 C 470.290985 202.173813 472.429779 202.483093 475.762177 202.854218 L 480.712585 203.399323 C 483.099731 203.662216 484.942139 204.021744 486.239807 204.477936 C 488.482758 205.274323 489.604218 206.430252 489.604218 207.945709 C 489.604218 209.832321 488.182373 211.181534 485.338684 211.993393 C 482.494934 212.805252 479.190613 213.211182 475.42569 213.211182 C 471.03598 213.211182 467.599487 212.669952 465.116241 211.587463 C 462.632996 210.512726 461.415375 209.055267 461.46347 207.215042 Z M 427.290802 195.67511 L 432.938202 195.67511 L 450.769501 209.476654 L 450.769501 195.67511 L 455.311401 195.67511 L 455.311401 212.712463 L 449.952393 212.712463 L 431.85675 198.922516 L 431.85675 212.712463 L 427.290802 212.712463 Z M 404.24472 195.211182 C 410.476868 195.211182 415.090851 196.177673 418.086792 198.110657 C 420.425842 199.618408 421.595367 201.547516 421.595367 203.898041 C 421.595367 206.441864 420.257629 208.556534 417.582123 210.242111 C 414.442017 212.221497 409.964172 213.211182 404.14859 213.211182 C 398.717499 213.211182 394.447876 212.345215 391.339844 210.613251 C 388.568207 208.94313 387.182404 206.832336 387.182404 204.280762 C 387.182404 201.976624 388.367981 200.005005 390.739044 198.365814 C 393.78302 196.262711 398.284912 195.211182 404.24472 195.211182 Z M 404.725342 211.146744 C 408.938812 211.146744 411.986816 210.418015 413.869263 208.960541 C 415.75174 207.503052 416.692963 205.827179 416.692963 203.932831 C 416.692963 201.930237 415.607544 200.318146 413.436707 199.096497 C 411.265869 197.874832 408.297974 197.264008 404.533051 197.264008 C 400.88031 197.264008 397.900421 197.869034 395.593414 199.079102 C 393.286377 200.289154 392.132904 202.073273 392.132904 204.431549 C 392.132904 206.318146 393.122162 207.908981 395.100739 209.204102 C 397.079346 210.499207 400.287506 211.146744 404.725342 211.146744 Z M 368.341797 195.211182 C 372.811615 195.211182 376.280182 195.77948 378.747375 196.916077 C 381.2146 198.052673 382.584381 199.343903 382.856781 200.789795 L 378.194672 200.789795 C 377.665985 199.691833 376.612579 198.822006 375.034546 198.180252 C 373.456482 197.538498 371.241577 197.217621 368.389832 197.217621 C 364.91333 197.217621 362.105621 197.80719 359.966827 198.986313 C 357.828064 200.165436 356.758667 201.972763 356.758667 204.408356 C 356.758667 206.403198 357.723907 208.021103 359.654449 209.262085 C 361.584961 210.503067 364.464722 211.12355 368.293732 211.12355 C 371.818329 211.12355 374.501831 210.470215 376.344238 209.163498 C 377.321533 208.475357 378.050476 207.570724 378.531128 206.449585 L 383.193207 206.449585 C 382.776672 208.243408 381.398865 209.747253 379.059784 210.961182 C 376.256104 212.422531 372.475189 213.153198 367.71698 213.153198 C 363.615631 213.153198 360.171143 212.55397 357.383484 211.355515 C 353.714691 209.770447 351.88028 207.323318 351.88028 204.014008 C 351.88028 201.501114 353.258057 199.440567 356.013702 197.832306 C 358.993591 196.084885 363.102936 195.211182 368.341797 195.211182 Z M 553.867188 212.710938 L 553.867188 210.679688 L 535.984375 210.679688 L 535.984375 195.671875 L 531.203125 195.671875 L 531.203125 212.710938 Z M 568.742188 212.710938 L 568.742188 197.703125 L 580.632813 197.703125 L 580.632813 195.671875 L 551.992188 195.671875 L 551.992188 197.703125 L 563.882813 197.703125 L 563.882813 212.710938 Z"/>
</svg>
