<svg xmlns="http://www.w3.org/2000/svg" viewBox="0 0 7410 3900">
  <rect width="7410" height="3900" fill="#b22234"/>
  <path d="M0,450h7410m0,600H0m0,600h7410m0,600H0m0,600h7410m0,600H0" stroke="#fff" stroke-width="300"/>
  <rect width="2964" height="2100" fill="#3c3b6e"/>
  <g fill="#fff">
    <g id="s"><g id="t"><path d="M247,90 317.5,307.5 152.5,182.5h189L79,307.5z"/></g>
    <use href="#t" x="494"/><use href="#t" x="988"/><use href="#t" x="1482"/>
    <use href="#t" x="1976"/><use href="#t" x="2470"/>
    </g>
    <use href="#s" y="210"/><use href="#s" y="420"/><use href="#s" y="630"/>
    <use href="#s" y="840"/><use href="#s" y="1050"/>
    <use href="#t" x="247" y="210"/><use href="#t" x="741" y="210"/><use href="#t" x="1235" y="210"/>
    <use href="#t" x="1729" y="210"/><use href="#t" x="2223" y="210"/>
    <use href="#t" x="247" y="420"/><use href="#t" x="741" y="420"/><use href="#t" x="1235" y="420"/>
    <use href="#t" x="1729" y="420"/><use href="#t" x="2223" y="420"/>
    <use href="#t" x="247" y="630"/><use href="#t" x="741" y="630"/><use href="#t" x="1235" y="630"/>
    <use href="#t" x="1729" y="630"/><use href="#t" x="2223" y="630"/>
    <use href="#t" x="247" y="840"/><use href="#t" x="741" y="840"/><use href="#t" x="1235" y="840"/>
    <use href="#t" x="1729" y="840"/><use href="#t" x="2223" y="840"/>
    <use href="#t" x="247" y="1050"/><use href="#t" x="741" y="1050"/><use href="#t" x="1235" y="1050"/>
    <use href="#t" x="1729" y="1050"/><use href="#t" x="2223" y="1050"/>
  </g>
</svg>
