<?xml version="1.0" encoding="UTF-8"?>
<!-- Generated by Pixelmator Pro 4.2 -->
<svg width="300" height="300" viewBox="0 0 300 300" xmlns="http://www.w3.org/2000/svg">
    <path id="Path" fill="#0a0e1a" stroke="none" visibility="hidden" d="M 0 0 L 300 0 L 300 300 L 0 300 Z"/>
    <path id="path1" fill="none" stroke="#00b4d8" stroke-width="1.5" stroke-opacity="0.25" d="M 150 22 L 256 82 L 256 202 L 150 262 L 44 202 L 44 82 Z"/>
    <linearGradient id="linearGradient1" x1="52" y1="30" x2="248" y2="250" gradientUnits="userSpaceOnUse">
        <stop offset="1e-05" stop-color="#00b4d8" stop-opacity="0.06"/>
        <stop offset="1" stop-color="#0077a8" stop-opacity="0.06"/>
    </linearGradient>
    <path id="path2" fill="url(#linearGradient1)" stroke="none" d="M 150 30 L 248 85 L 248 195 L 150 250 L 52 195 L 52 85 Z"/>
    <linearGradient id="linearGradient2" x1="52" y1="30" x2="248" y2="250" gradientUnits="userSpaceOnUse">
        <stop offset="1e-05" stop-color="#00b4d8" stop-opacity="1"/>
        <stop offset="1" stop-color="#0077a8" stop-opacity="1"/>
    </linearGradient>
    <path id="path3" fill="none" stroke="url(#linearGradient2)" stroke-width="3" d="M 150 30 L 248 85 L 248 195 L 150 250 L 52 195 L 52 85 Z"/>
    <path id="path4" fill="#00b4d8" stroke="none" opacity="0.9" d="M 155 30 C 155 32.761414 152.761429 35 150 35 C 147.238571 35 145 32.761414 145 30 C 145 27.238586 147.238571 25 150 25 C 152.761429 25 155 27.238586 155 30 Z"/>
    <path id="path5" fill="#00b4d8" stroke="none" opacity="0.9" d="M 253 85 C 253 87.761414 250.761429 90 248 90 C 245.238571 90 243 87.761414 243 85 C 243 82.238586 245.238571 80 248 80 C 250.761429 80 253 82.238586 253 85 Z"/>
    <path id="path6" fill="#00b4d8" stroke="none" opacity="0.9" d="M 253 195 C 253 197.761429 250.761429 200 248 200 C 245.238571 200 243 197.761429 243 195 C 243 192.238571 245.238571 190 248 190 C 250.761429 190 253 192.238571 253 195 Z"/>
    <path id="path7" fill="#00b4d8" stroke="none" opacity="0.9" d="M 155 250 C 155 252.761429 152.761429 255 150 255 C 147.238571 255 145 252.761429 145 250 C 145 247.238571 147.238571 245 150 245 C 152.761429 245 155 247.238571 155 250 Z"/>
    <path id="path8" fill="#00b4d8" stroke="none" opacity="0.9" d="M 57 195 C 57 197.761429 54.761425 200 52 200 C 49.238575 200 47 197.761429 47 195 C 47 192.238571 49.238575 190 52 190 C 54.761425 190 57 192.238571 57 195 Z"/>
    <path id="path9" fill="#00b4d8" stroke="none" opacity="0.9" d="M 57 85 C 57 87.761414 54.761425 90 52 90 C 49.238575 90 47 87.761414 47 85 C 47 82.238586 49.238575 80 52 80 C 54.761425 80 57 82.238586 57 85 Z"/>
    <path id="path10" fill="#000000" stroke="#00b4d8" stroke-width="0.8" stroke-opacity="0.15" stroke-dasharray="4 5" stroke-dashoffset="0" d="M 52 140 L 248 140"/>
    <path id="path11" fill="#ffffff" fill-opacity="0.92" stroke="none" d="M 98 93 L 108 93 C 109.656853 93 111 94.34314 111 96 L 111 205 C 111 206.65686 109.656853 208 108 208 L 98 208 C 96.343147 208 95 206.65686 95 205 L 95 96 C 95 94.34314 96.343147 93 98 93 Z"/>
    <path id="path12" fill="#ffffff" fill-opacity="0.92" stroke="none" d="M 192 93 L 202 93 C 203.65686 93 205 94.34314 205 96 L 205 205 C 205 206.65686 203.65686 208 202 208 L 192 208 C 190.34314 208 189 206.65686 189 205 L 189 96 C 189 94.34314 190.34314 93 192 93 Z"/>
    <linearGradient id="linearGradient3" x1="111" y1="93" x2="189" y2="208" gradientUnits="userSpaceOnUse">
        <stop offset="1e-05" stop-color="#90e0ef" stop-opacity="1"/>
        <stop offset="1" stop-color="#00b4d8" stop-opacity="1"/>
    </linearGradient>
    <path id="path13" fill="url(#linearGradient3)" stroke="none" d="M 111 93 L 189 183 L 189 208 L 111 118 Z"/>
    <path id="path14" fill="#00d4ff" stroke="none" opacity="0.9" d="M 156 150 C 156 153.313705 153.313705 156 150 156 C 146.686295 156 144 153.313705 144 150 C 144 146.686295 146.686295 144 150 144 C 153.313705 144 156 146.686295 156 150 Z"/>
    <path id="path15" fill="none" stroke="#00b4d8" stroke-width="2" stroke-opacity="0.5" d="M 30 50 L 30 30 L 50 30"/>
    <path id="path16" fill="none" stroke="#00b4d8" stroke-width="2" stroke-opacity="0.5" d="M 270 50 L 270 30 L 250 30"/>
    <path id="path17" fill="none" stroke="#00b4d8" stroke-width="2" stroke-opacity="0.5" d="M 30 250 L 30 270 L 50 270"/>
    <path id="path18" fill="none" stroke="#00b4d8" stroke-width="2" stroke-opacity="0.5" d="M 270 250 L 270 270 L 250 270"/>
</svg>
